<svg xmlns="http://www.w3.org/2000/svg" xmlns:xlink="http://www.w3.org/1999/xlink" width="1024" zoomAndPan="magnify" viewBox="0 0 768 767.999994" height="1024" preserveAspectRatio="xMidYMid meet" version="1.0"><defs><clipPath id="7e8de68562"><path d="M 232 208 L 537.898438 208 L 537.898438 501 L 232 501 Z M 232 208 " clip-rule="nonzero"/></clipPath><clipPath id="d8e471dab1"><path d="M 343.5625 313.40625 L 424.5625 313.40625 L 424.5625 428.90625 L 343.5625 428.90625 Z M 343.5625 313.40625 " clip-rule="nonzero"/></clipPath></defs><g clip-path="url(#7e8de68562)"><path fill="#000000" d="M 536.589844 411.722656 C 535.480469 407.984375 532.988281 404.902344 529.582031 403.050781 C 522.738281 399.332031 513.546875 402.0625 509.820312 408.878906 C 494.484375 437.003906 469.109375 457.476562 438.378906 466.539062 C 407.976562 475.507812 374.917969 471.949219 347.089844 456.777344 C 325.261719 444.882812 309.382812 425.210938 302.359375 401.371094 C 296.046875 379.917969 298.136719 358.570312 307.070312 341.355469 C 303.972656 355.054688 304.398438 369.386719 308.46875 383.238281 C 314.757812 404.628906 329.007812 422.277344 348.585938 432.925781 C 371.90625 445.660156 399.691406 448.636719 425.203125 441.128906 C 451.015625 433.515625 472.316406 416.328125 485.160156 392.726562 C 500.792969 364.074219 504.324219 331.050781 495.101562 299.730469 C 485.882812 268.421875 465.027344 242.578125 436.367188 226.953125 C 401.78125 208.109375 360.660156 203.699219 322.882812 214.84375 C 284.679688 226.089844 253.148438 251.535156 234.085938 286.496094 C 230.238281 293.546875 232.847656 302.410156 239.898438 306.269531 C 246.757812 310.015625 255.972656 307.265625 259.6875 300.449219 C 275.003906 272.332031 300.371094 251.859375 331.117188 242.808594 C 361.519531 233.863281 394.585938 237.398438 422.414062 252.550781 C 444.226562 264.449219 460.097656 284.125 467.121094 307.976562 C 473.441406 329.425781 471.351562 350.785156 462.410156 367.988281 C 465.507812 354.300781 465.097656 339.957031 461.027344 326.082031 C 454.722656 304.714844 440.46875 287.058594 420.902344 276.386719 C 397.574219 263.671875 369.789062 260.703125 344.277344 268.203125 C 318.488281 275.796875 297.1875 292.980469 284.328125 316.59375 C 268.695312 345.238281 265.171875 378.261719 274.386719 409.578125 C 283.613281 440.90625 304.46875 466.753906 333.121094 482.359375 C 355.027344 494.304688 379.636719 500.628906 404.296875 500.628906 C 418.539062 500.628906 432.773438 498.5625 446.605469 494.484375 C 484.808594 483.246094 516.347656 457.785156 535.402344 422.816406 C 537.269531 419.410156 537.699219 415.460938 536.589844 411.722656 Z M 374.472656 321.988281 C 377.65625 321.046875 380.941406 320.570312 384.226562 320.570312 C 399.410156 320.570312 413.003906 330.75 417.292969 345.324219 C 422.660156 363.570312 412.183594 382.785156 393.9375 388.160156 C 390.757812 389.101562 387.480469 389.578125 384.195312 389.578125 C 369.023438 389.578125 355.421875 379.398438 351.128906 364.816406 C 345.75 346.578125 356.230469 327.363281 374.472656 321.988281 Z M 374.472656 321.988281 " fill-opacity="1" fill-rule="nonzero"/></g><g clip-path="url(#d8e471dab1)"><path fill="#ffffff" d="M 383.996094 313.410156 C 361.671875 313.410156 343.5625 331.519531 343.5625 353.84375 C 343.5625 384.171875 383.996094 428.9375 383.996094 428.9375 C 383.996094 428.9375 424.433594 384.171875 424.433594 353.84375 C 424.433594 331.519531 406.324219 313.410156 383.996094 313.410156 Z M 383.996094 368.285156 C 376.027344 368.285156 369.554688 361.816406 369.554688 353.84375 C 369.554688 345.871094 376.027344 339.402344 383.996094 339.402344 C 391.96875 339.402344 398.4375 345.871094 398.4375 353.84375 C 398.4375 361.816406 391.96875 368.285156 383.996094 368.285156 Z M 383.996094 368.285156 " fill-opacity="1" fill-rule="nonzero"/></g></svg>